<?xml version="1.0" standalone="no"?>
<!DOCTYPE svg PUBLIC "-//W3C//DTD SVG 20010904//EN"
 "http://www.w3.org/TR/2001/REC-SVG-20010904/DTD/svg10.dtd">
<svg version="1.0" xmlns="http://www.w3.org/2000/svg"
 width="700.000000pt" height="700.000000pt" viewBox="0 0 700.000000 700.000000"
 preserveAspectRatio="xMidYMid meet">
<metadata>
Created by potrace 1.11, written by Peter Selinger 2001-2013
</metadata>
<g transform="translate(0.000000,700.000000) scale(0.100000,-0.100000)"
fill="#000000" stroke="none">
<path d="M3400 5824 c-81 -30 -121 -64 -150 -129 -22 -47 -21 -135 2 -180 42
-81 128 -130 213 -122 61 6 88 18 133 61 47 44 67 91 67 156 -1 88 -45 159
-121 195 -37 18 -119 28 -144 19z"/>
<path d="M4178 5817 c-81 -23 -153 -92 -182 -175 -22 -63 -14 -161 17 -215 51
-87 127 -135 223 -142 112 -8 210 49 260 152 67 137 9 301 -129 367 -48 22
-134 28 -189 13z"/>
<path d="M2794 5485 c-91 -40 -122 -163 -63 -246 24 -34 89 -68 130 -69 62 0
136 54 156 115 44 134 -94 256 -223 200z"/>
<path d="M4981 5378 c-19 -5 -54 -23 -77 -39 -141 -97 -155 -302 -29 -418 59
-54 107 -73 185 -74 215 0 345 235 230 416 -65 102 -191 149 -309 115z"/>
<path d="M2368 4995 c-34 -19 -58 -63 -58 -106 0 -43 56 -99 99 -99 109 0 160
132 75 194 -35 25 -83 29 -116 11z"/>
<path d="M3595 4963 c-332 -41 -602 -205 -779 -473 -147 -222 -206 -473 -172
-732 43 -337 269 -654 576 -808 62 -32 230 -93 230 -85 0 3 11 0 25 -5 38 -14
140 -24 245 -23 385 2 753 233 929 581 235 466 104 1025 -314 1338 -113 84
-270 157 -396 183 -30 6 -65 14 -79 16 -33 7 -227 13 -265 8z m278 -232 c210
-50 373 -154 503 -323 75 -96 141 -247 160 -363 22 -140 3 -329 -47 -454 -64
-159 -214 -335 -354 -417 -503 -292 -1131 -22 -1261 541 -27 121 -27 221 1
385 7 40 47 141 79 200 124 228 346 390 594 434 88 15 254 14 325 -3z"/>
<path d="M5520 4717 c-3 -3 -17 -8 -31 -10 -46 -9 -116 -48 -162 -90 -198
-186 -146 -512 100 -624 65 -30 92 -36 168 -35 144 1 273 85 339 222 28 59 31
73 30 160 -1 83 -4 103 -29 153 -66 138 -180 215 -329 224 -45 3 -83 3 -86 0z"/>
<path d="M2182 4514 c-12 -8 -22 -23 -22 -32 0 -29 30 -62 55 -62 25 0 55 33
55 61 0 19 -31 49 -51 49 -8 0 -25 -7 -37 -16z"/>
<path d="M1499 3780 c-240 -49 -441 -210 -544 -435 -15 -32 -28 -64 -29 -69
-2 -6 -8 -29 -14 -51 -6 -22 -13 -58 -17 -80 -7 -48 -8 -223 0 -234 2 -5 7
-26 11 -47 23 -147 149 -340 295 -452 177 -136 469 -183 684 -110 232 79 406
248 488 475 31 85 38 124 42 233 19 488 -433 868 -916 770z"/>
<path d="M5478 3611 c-156 -50 -271 -163 -323 -318 -105 -311 135 -642 465
-643 270 0 492 222 491 491 -1 221 -152 419 -365 475 -72 19 -199 17 -268 -5z"/>
<path d="M2885 2524 c-38 -8 -113 -35 -165 -61 -235 -115 -381 -358 -374 -623
5 -185 69 -335 199 -465 137 -137 289 -200 480 -199 197 1 342 61 480 199 90
89 132 157 172 273 22 65 26 95 27 197 0 168 -29 271 -114 395 -92 133 -219
225 -381 275 -73 22 -236 27 -324 9z"/>
<path d="M4654 2479 c-251 -33 -465 -235 -514 -486 -24 -128 4 -287 73 -413
72 -130 235 -248 389 -283 59 -13 203 -16 248 -5 197 50 337 159 420 326 42
85 61 164 61 257 1 90 -4 125 -27 193 -64 191 -229 347 -420 396 -72 19 -160
24 -230 15z"/>
</g>
</svg>
