<?xml version="1.0" encoding="utf-8"?>
<!-- Generator: Adobe Illustrator 16.0.0, SVG Export Plug-In . SVG Version: 6.00 Build 0)  -->
<!DOCTYPE svg PUBLIC "-//W3C//DTD SVG 1.1//EN" "http://www.w3.org/Graphics/SVG/1.1/DTD/svg11.dtd">
<svg version="1.1" id="图层_1" xmlns="http://www.w3.org/2000/svg" xmlns:xlink="http://www.w3.org/1999/xlink" x="0px" y="0px"
	 width="24px" height="24px" viewBox="0 0 24 24" enable-background="new 0 0 24 24" xml:space="preserve">
<path d="M3.226,20.24V10.092c0.118-1.839-0.565-2.671-2.047-2.493V6.887h6.944c4.095,0,6.172,1.396,6.231,4.185
	c0.118,1.84-0.979,3.175-3.294,4.006l2.76,5.697c0.534,1.01,1.247,1.544,2.137,1.603v0.801h-3.917l-3.472-7.655h-2.76v4.54
	c-0.12,1.722,0.563,2.492,2.048,2.314v0.801H1.267v-0.801C2.632,22.496,3.284,21.784,3.226,20.24z M5.807,14.81h2.404
	c2.373-0.059,3.59-1.275,3.65-3.649c0-2.373-1.246-3.562-3.739-3.562H5.807V14.81z"/>
<path d="M22.975,9.999c-0.98,0.558-2.087,0.837-3.32,0.837c-1.418,0-2.562-0.449-3.43-1.347c-0.867-0.896-1.301-2.095-1.301-3.594
	c0-1.517,0.479-2.762,1.438-3.737s2.188-1.463,3.687-1.463c1.06,0,1.957,0.169,2.692,0.506v1.368
	c-0.786-0.494-1.721-0.74-2.807-0.74c-1.068,0-1.949,0.365-2.641,1.096c-0.693,0.73-1.039,1.693-1.039,2.888
	c0,1.229,0.318,2.186,0.956,2.869c0.638,0.685,1.499,1.026,2.585,1.026c0.746,0,1.383-0.144,1.906-0.431V6.623h-2.129V5.502h3.402
	V9.999z"/>
</svg>
