<?xml version="1.0" encoding="utf-8"?>
<!-- Generator: Adobe Illustrator 16.0.0, SVG Export Plug-In . SVG Version: 6.00 Build 0)  -->
<!DOCTYPE svg PUBLIC "-//W3C//DTD SVG 1.1//EN" "http://www.w3.org/Graphics/SVG/1.1/DTD/svg11.dtd">
<svg version="1.1" id="Layer_1" xmlns="http://www.w3.org/2000/svg" xmlns:xlink="http://www.w3.org/1999/xlink" x="0px" y="0px"
	 width="64px" height="64px" viewBox="0 0 64 64" enable-background="new 0 0 64 64" xml:space="preserve">
<g>
	<path d="M33.829,38.088c5.376,0,9.75-4.373,9.75-9.75c0-5.375-4.374-9.75-9.75-9.75s-9.75,4.375-9.75,9.75
		C24.079,33.715,28.453,38.088,33.829,38.088z M33.829,20.588c4.273,0,7.75,3.477,7.75,7.75s-3.477,7.75-7.75,7.75
		s-7.75-3.477-7.75-7.75S29.556,20.588,33.829,20.588z"/>
	<circle cx="15.108" cy="36.287" r="7"/>
	<circle cx="43.267" cy="46.787" r="5.5"/>
	<circle cx="27.667" cy="47.037" r="6.25"/>
	<circle cx="51.392" cy="35.287" r="4.5"/>
	<circle cx="51.079" cy="24.338" r="3.5"/>
	<circle cx="46.267" cy="17.213" r="2.5"/>
	<circle cx="38.892" cy="13.213" r="2.5"/>
	<circle cx="31.538" cy="12.713" r="2"/>
	<circle cx="26.167" cy="15.213" r="1.5"/>
	<circle cx="22.108" cy="19.213" r="1"/>
	<circle cx="20.248" cy="23.088" r="0.5"/>
</g>
</svg>
